# xmcd
#
# Track frame offsets: 
#        150
#        15485
#        32087
#        46159
#        67180
#        83777
#        104012
#        117881
#        137766
#
# Disc length: 2112 seconds
#
# Revision: 0
# Processed by: cddbd v1.5.2PL0 Copyright (c) Steve Scherf et al.
# Submitted via: ExactAudioCopy v0.99pb3
#
DISCID=75083e09
DTITLE=Witchmop - Modern Witch
DYEAR=2008
DGENRE=Pop
TTITLE0=Modern Witch
TTITLE1=No Sleep
TTITLE2=Superhero
TTITLE3=Your Love
TTITLE4=Never Screw The Crew
TTITLE5=Dear Mike Dooley
TTITLE6=Finally
TTITLE7=Ask Believe Receive
TTITLE8=Back Home
EXTD=
EXTT0=
EXTT1=
EXTT2=
EXTT3=
EXTT4=
EXTT5=
EXTT6=
EXTT7=
EXTT8=
PLAYORDER=
